<?xml version="1.0" encoding="iso-8859-1"?>
<!-- Generator: Adobe Illustrator 14.0.0, SVG Export Plug-In . SVG Version: 6.00 Build 43363)  -->
<!DOCTYPE svg PUBLIC "-//W3C//DTD SVG 1.1//EN" "http://www.w3.org/Graphics/SVG/1.1/DTD/svg11.dtd">
<svg version="1.1" id="&#x56FE;&#x5C42;_1" xmlns="http://www.w3.org/2000/svg" xmlns:xlink="http://www.w3.org/1999/xlink" x="0px"
	 y="0px" width="595.28px" height="841.89px" viewBox="0 0 595.28 841.89" style="enable-background:new 0 0 595.28 841.89;"
	 xml:space="preserve">
<path style="fill-rule:evenodd;clip-rule:evenodd;fill:#007278;" d="M291.935,240.55v18.834c0,4.244,1.642,8.254,4.477,11.254v0
	c-0.14,0.172-0.281,0.344-0.42,0.517c-1.385,1.711-2.616,3.542-3.679,5.47c-2.202-0.043-4.403,0.108-6.578,0.452
	c-0.219,0.034-0.438,0.07-0.657,0.105c-1.181-3.956-3.833-7.382-7.508-9.504l-16.31-9.417c-3.44-15.341-5.62-30.958-6.507-46.692
	l0,0C267.935,220.205,280.369,229.9,291.935,240.55L291.935,240.55z"/>
<path style="fill-rule:evenodd;clip-rule:evenodd;fill:#007278;" d="M291.935,368.153v-18.834c0-4.244,1.642-8.254,4.477-11.254v0
	c-0.14-0.172-0.281-0.344-0.42-0.516c-1.385-1.711-2.616-3.542-3.679-5.47c-2.202,0.043-4.403-0.108-6.578-0.452
	c-0.219-0.035-0.438-0.07-0.657-0.105c-1.181,3.955-3.833,7.382-7.508,9.505l-16.31,9.416c-3.44,15.341-5.62,30.958-6.507,46.692
	l0,0C267.935,388.498,280.369,378.803,291.935,368.153L291.935,368.153z"/>
<path style="fill-rule:evenodd;clip-rule:evenodd;fill:#007278;" d="M324.705,240.55v18.834c0,4.244-1.643,8.254-4.478,11.254v0
	c0.14,0.172,0.28,0.344,0.42,0.517c1.386,1.711,2.616,3.542,3.68,5.47c2.201-0.043,4.402,0.108,6.577,0.452
	c0.22,0.034,0.438,0.07,0.657,0.105c1.181-3.956,3.833-7.382,7.509-9.504l16.31-9.417c3.44-15.341,5.62-30.958,6.507-46.692h0.001
	C348.704,220.205,336.271,229.9,324.705,240.55L324.705,240.55z"/>
<path style="fill-rule:evenodd;clip-rule:evenodd;fill:#007278;" d="M324.705,368.153v-18.834c0-4.244-1.643-8.254-4.478-11.254v0
	c0.14-0.172,0.28-0.344,0.42-0.516c1.386-1.711,2.616-3.542,3.68-5.47c2.201,0.043,4.402-0.108,6.577-0.452
	c0.22-0.035,0.438-0.07,0.657-0.105c1.181,3.955,3.833,7.382,7.509,9.505l16.31,9.416c3.44,15.341,5.62,30.958,6.507,46.692h0.001
	C348.704,388.498,336.271,378.803,324.705,368.153L324.705,368.153z"/>
<path style="fill-rule:evenodd;clip-rule:evenodd;fill:#9DC716;" d="M324.705,240.55v-18.095h-5.44v-44.961
	c9.855,0.85,19.578,2.846,28.971,5.947c8.558,2.825,14.248,10.931,13.998,19.939c-0.076,2.733-0.191,5.463-0.346,8.189
	C348.705,220.205,336.271,229.9,324.705,240.55L324.705,240.55z"/>
<path style="fill-rule:evenodd;clip-rule:evenodd;fill:#9DC716;" d="M324.705,368.153v18.095h-5.44v44.961
	c9.855-0.85,19.578-2.846,28.971-5.947c8.558-2.824,14.248-10.93,13.998-19.938c-0.076-2.733-0.191-5.463-0.346-8.189
	C348.705,388.498,336.271,378.803,324.705,368.153L324.705,368.153z"/>
<path style="fill-rule:evenodd;clip-rule:evenodd;fill:#9DC716;" d="M254.752,211.569c-0.154-2.727-0.27-5.457-0.346-8.189
	c-0.25-9.008,5.44-17.114,13.997-19.939c9.394-3.101,19.116-5.097,28.971-5.947v44.961h-5.44v18.095
	C280.369,229.9,267.935,220.205,254.752,211.569L254.752,211.569z"/>
<path style="fill-rule:evenodd;clip-rule:evenodd;fill:#9DC716;" d="M254.752,397.134c-0.154,2.727-0.27,5.457-0.346,8.189
	c-0.25,9.008,5.44,17.114,13.997,19.938c9.394,3.102,19.116,5.098,28.971,5.947v-44.961h-5.44v-18.095
	C280.369,378.803,267.935,388.498,254.752,397.134L254.752,397.134z"/>
<path style="fill-rule:evenodd;clip-rule:evenodd;fill:#1994C6;" d="M308.319,256.906c5.243-5.674,10.71-11.13,16.386-16.356v18.834
	c0,4.244-1.643,8.254-4.478,11.254C316.4,265.932,312.429,261.352,308.319,256.906L308.319,256.906z"/>
<path style="fill-rule:evenodd;clip-rule:evenodd;fill:#009C8C;" d="M308.319,351.797c5.243,5.673,10.71,11.13,16.386,16.356
	v-18.834c0-4.245-1.643-8.254-4.478-11.255C316.4,342.771,312.429,347.351,308.319,351.797L308.319,351.797z"/>
<path style="fill-rule:evenodd;clip-rule:evenodd;fill:#009C8C;" d="M308.319,256.906c-5.243-5.674-10.709-11.13-16.385-16.356
	v18.834c0,4.244,1.642,8.254,4.477,11.254C300.239,265.932,304.211,261.352,308.319,256.906L308.319,256.906z"/>
<path style="fill-rule:evenodd;clip-rule:evenodd;fill:#1994C6;" d="M308.319,351.797c-5.243,5.673-10.709,11.13-16.385,16.356
	v-18.834c0-4.245,1.642-8.254,4.477-11.255C300.239,342.771,304.211,347.351,308.319,351.797L308.319,351.797z"/>
<path style="fill-rule:evenodd;clip-rule:evenodd;fill:#075D77;" d="M318.903,271.893c0.464-0.393,0.905-0.811,1.323-1.252
	l0.001-0.001c-3.827-4.707-7.799-9.287-11.908-13.732c-4.108,4.446-8.08,9.025-11.908,13.732
	C302.337,276.877,312.324,277.462,318.903,271.893L318.903,271.893z"/>
<path style="fill-rule:evenodd;clip-rule:evenodd;fill:#075D77;" d="M318.903,336.811c0.464,0.393,0.905,0.811,1.323,1.252
	l0.001,0.001c-3.827,4.708-7.799,9.287-11.908,13.733c-4.108-4.446-8.08-9.025-11.908-13.733
	C302.337,331.826,312.324,331.241,318.903,336.811L318.903,336.811z"/>
<path style="fill-rule:evenodd;clip-rule:evenodd;fill:#007278;" d="M244.873,286.641l16.311,9.417
	c3.676,2.123,7.97,2.705,11.985,1.75l0.001,0c0.079,0.208,0.157,0.415,0.237,0.622c0.79,2.056,1.759,4.037,2.897,5.922
	c-1.138,1.885-2.108,3.867-2.897,5.922c-0.08,0.207-0.158,0.415-0.237,0.622c-4.016-0.955-8.31-0.372-11.986,1.75l-16.31,9.417
	c-15.005-4.691-29.62-10.612-43.69-17.71l0,0C215.254,297.252,229.868,291.332,244.873,286.641L244.873,286.641z"/>
<path style="fill-rule:evenodd;clip-rule:evenodd;fill:#007278;" d="M371.766,322.063l-16.311-9.417
	c-3.676-2.122-7.97-2.705-11.985-1.75v0c-0.079-0.207-0.157-0.415-0.237-0.622c-0.79-2.055-1.759-4.037-2.897-5.922
	c1.139-1.885,2.107-3.867,2.897-5.922c0.08-0.207,0.158-0.415,0.237-0.622c4.016,0.955,8.31,0.373,11.985-1.75l16.31-9.416
	c15.006,4.69,29.62,10.611,43.69,17.71v0C401.385,311.451,386.771,317.371,371.766,322.063L371.766,322.063z"/>
<path style="fill-rule:evenodd;clip-rule:evenodd;fill:#009C8C;" d="M261.259,258.261l-15.671-9.047l-2.72,4.711l-38.938-22.48
	c5.664-8.11,12.253-15.532,19.636-22.116c6.726-5.999,16.59-6.874,24.266-2.153c2.329,1.432,4.635,2.897,6.92,4.394
	C255.639,227.304,257.818,242.92,261.259,258.261L261.259,258.261z"/>
<path style="fill-rule:evenodd;clip-rule:evenodd;fill:#009C8C;" d="M371.766,322.063l15.671,9.047l-2.72,4.712l38.938,22.48
	c4.191-8.96,7.324-18.378,9.335-28.063c1.832-8.823-2.342-17.804-10.269-22.091c-2.405-1.3-4.827-2.565-7.266-3.795
	C401.385,311.45,386.771,317.371,371.766,322.063L371.766,322.063z"/>
<path style="fill-rule:evenodd;clip-rule:evenodd;fill:#009C8C;" d="M201.184,304.352c-2.438-1.23-4.86-2.495-7.265-3.795
	c-7.927-4.288-12.102-13.268-10.269-22.092c2.011-9.685,5.144-19.103,9.335-28.063l38.938,22.48l-2.72,4.711l15.67,9.047
	C229.868,291.332,215.254,297.252,201.184,304.352L201.184,304.352z"/>
<path style="fill-rule:evenodd;clip-rule:evenodd;fill:#009C8C;" d="M361.888,397.134c2.284,1.496,4.591,2.962,6.919,4.394
	c7.677,4.721,17.541,3.846,24.267-2.152c7.382-6.584,13.972-14.006,19.636-22.116l-38.938-22.48l-2.721,4.711l-15.67-9.047
	C358.82,365.783,361,381.399,361.888,397.134L361.888,397.134z"/>
<path style="fill-rule:evenodd;clip-rule:evenodd;fill:#9DC716;" d="M267.23,280.629c-2.292-7.377-4.284-14.84-5.972-22.368
	l16.311,9.417c3.676,2.122,6.328,5.549,7.508,9.505C279.087,278.144,273.135,279.294,267.23,280.629L267.23,280.629z"/>
<path style="fill-rule:evenodd;clip-rule:evenodd;fill:#1994C6;" d="M349.408,328.074c7.535-1.704,14.994-3.71,22.357-6.012
	l-16.311-9.417c-3.676-2.123-7.97-2.706-11.985-1.75C345.633,316.563,347.612,322.293,349.408,328.074L349.408,328.074z"/>
<path style="fill-rule:evenodd;clip-rule:evenodd;fill:#1994C6;" d="M267.23,280.629c-7.535,1.704-14.993,3.71-22.357,6.012
	l16.311,9.417c3.676,2.123,7.97,2.706,11.985,1.75C271.007,292.14,269.026,286.41,267.23,280.629L267.23,280.629z"/>
<path style="fill-rule:evenodd;clip-rule:evenodd;fill:#9DC716;" d="M349.408,328.074c2.292,7.377,4.284,14.84,5.973,22.368
	l-16.311-9.417c-3.676-2.122-6.328-5.55-7.509-9.505C337.552,330.56,343.504,329.409,349.408,328.074L349.408,328.074z"/>
<path style="fill-rule:evenodd;clip-rule:evenodd;fill:#075D77;" d="M285.501,278.956c-0.108-0.598-0.25-1.189-0.423-1.772l0-0.001
	c-5.99,0.961-11.942,2.111-17.847,3.446c1.796,5.781,3.776,11.511,5.939,17.179C281.535,295.795,287.035,287.438,285.501,278.956
	L285.501,278.956z"/>
<path style="fill-rule:evenodd;clip-rule:evenodd;fill:#075D77;" d="M341.722,311.415c0.572-0.205,1.155-0.379,1.746-0.52l0.002,0
	c2.163,5.668,4.143,11.398,5.938,17.179c-5.904,1.335-11.856,2.485-17.847,3.446C329.122,323.27,333.609,314.329,341.722,311.415
	L341.722,311.415z"/>
<path style="fill-rule:evenodd;clip-rule:evenodd;fill:#1994C6;" d="M244.873,322.063l-15.67,9.047l2.72,4.712l-38.938,22.48
	c-4.191-8.96-7.324-18.378-9.335-28.063c-1.833-8.823,2.342-17.804,10.269-22.091c2.405-1.3,4.827-2.565,7.265-3.795
	C215.254,311.45,229.867,317.371,244.873,322.063L244.873,322.063z"/>
<path style="fill-rule:evenodd;clip-rule:evenodd;fill:#1994C6;" d="M355.381,258.261l15.67-9.047l2.721,4.711l38.938-22.48
	c-5.664-8.11-12.254-15.532-19.636-22.116c-6.726-5.999-16.59-6.874-24.267-2.153c-2.328,1.432-4.635,2.897-6.919,4.394
	C361,227.304,358.821,242.92,355.381,258.261L355.381,258.261z"/>
<path style="fill-rule:evenodd;clip-rule:evenodd;fill:#1994C6;" d="M254.752,397.134c-2.285,1.496-4.591,2.962-6.919,4.394
	c-7.676,4.721-17.541,3.846-24.267-2.152c-7.382-6.584-13.972-14.006-19.636-22.116l38.938-22.48l2.72,4.711l15.671-9.047
	C257.818,365.783,255.639,381.399,254.752,397.134L254.752,397.134z"/>
<path style="fill-rule:evenodd;clip-rule:evenodd;fill:#1994C6;" d="M415.455,304.352c2.438-1.23,4.86-2.495,7.266-3.795
	c7.927-4.288,12.101-13.268,10.269-22.092c-2.011-9.685-5.144-19.103-9.335-28.063l-38.938,22.48l2.72,4.711l-15.671,9.047
	C386.771,291.332,401.385,297.252,415.455,304.352L415.455,304.352z"/>
<path style="fill-rule:evenodd;clip-rule:evenodd;fill:#009C8C;" d="M267.23,328.074c-7.535-1.704-14.993-3.71-22.357-6.012
	l16.311-9.417c3.676-2.123,7.97-2.706,11.985-1.75C271.007,316.563,269.026,322.293,267.23,328.074L267.23,328.074z"/>
<path style="fill-rule:evenodd;clip-rule:evenodd;fill:#9DC716;" d="M349.408,280.629c2.292-7.377,4.284-14.84,5.973-22.368
	l-16.311,9.417c-3.676,2.122-6.328,5.549-7.509,9.505C337.552,278.144,343.504,279.294,349.408,280.629L349.408,280.629z"/>
<path style="fill-rule:evenodd;clip-rule:evenodd;fill:#9DC716;" d="M267.23,328.074c-2.292,7.377-4.284,14.84-5.972,22.368
	l16.311-9.417c3.676-2.122,6.328-5.55,7.508-9.505C279.087,330.56,273.135,329.41,267.23,328.074L267.23,328.074z"/>
<path style="fill-rule:evenodd;clip-rule:evenodd;fill:#009C8C;" d="M349.408,280.629c7.535,1.704,14.994,3.71,22.357,6.012
	l-16.311,9.417c-3.676,2.123-7.97,2.706-11.985,1.75C345.633,292.14,347.612,286.41,349.408,280.629L349.408,280.629z"/>
<path style="fill-rule:evenodd;clip-rule:evenodd;fill:#075D77;" d="M274.917,311.415c-0.571-0.205-1.154-0.379-1.746-0.52l-0.002,0
	c-2.163,5.668-4.143,11.398-5.939,17.179c5.905,1.335,11.857,2.485,17.847,3.446C287.518,323.27,283.03,314.329,274.917,311.415
	L274.917,311.415z"/>
<path style="fill-rule:evenodd;clip-rule:evenodd;fill:#075D77;" d="M331.138,278.956c0.108-0.598,0.25-1.189,0.424-1.772v-0.001
	c5.99,0.961,11.942,2.111,17.847,3.446c-1.796,5.781-3.775,11.511-5.938,17.179C335.104,295.795,329.604,287.438,331.138,278.956
	L331.138,278.956z"/>
<path style="fill-rule:evenodd;clip-rule:evenodd;fill:#18316D;" d="M320.228,338.064c-1.075-1.138-2.321-2.13-3.716-2.936
	c-5.069-2.927-11.315-2.927-16.385,0c-1.395,0.805-2.641,1.798-3.715,2.936c-0.14-0.172-0.281-0.344-0.42-0.516
	c-1.385-1.711-2.616-3.542-3.679-5.47c-2.202,0.043-4.403-0.108-6.578-0.452c-0.219-0.035-0.438-0.07-0.657-0.105
	c0.448-1.5,0.685-3.076,0.685-4.686c0-5.854-3.123-11.263-8.192-14.19c-1.395-0.805-2.878-1.388-4.401-1.75
	c0.079-0.207,0.158-0.415,0.238-0.621c0.79-2.056,1.759-4.037,2.898-5.922c-1.139-1.885-2.108-3.866-2.898-5.922
	c-0.08-0.207-0.158-0.414-0.237-0.622c1.523-0.362,3.006-0.945,4.4-1.75c5.069-2.927,8.192-8.336,8.192-14.19
	c0-1.61-0.237-3.186-0.684-4.686c0.219-0.035,0.438-0.071,0.657-0.105c2.175-0.344,4.376-0.495,6.578-0.452
	c1.063-1.928,2.294-3.759,3.679-5.47c0.14-0.172,0.28-0.344,0.42-0.517c1.075,1.138,2.321,2.131,3.715,2.936
	c5.069,2.927,11.315,2.927,16.385,0c1.395-0.805,2.641-1.797,3.716-2.936c0.14,0.172,0.28,0.344,0.42,0.517
	c1.386,1.711,2.616,3.542,3.68,5.47c2.201-0.043,4.402,0.108,6.577,0.452c0.22,0.034,0.438,0.069,0.657,0.104
	c-0.447,1.5-0.685,3.076-0.685,4.687c0,5.854,3.123,11.263,8.193,14.19c1.394,0.805,2.877,1.388,4.4,1.75
	c-0.079,0.208-0.158,0.415-0.238,0.622c-0.789,2.056-1.759,4.037-2.897,5.922c1.139,1.885,2.108,3.867,2.897,5.922
	c0.08,0.207,0.158,0.415,0.237,0.622c-1.523,0.362-3.006,0.945-4.399,1.75c-5.07,2.927-8.193,8.336-8.193,14.19
	c0,1.609,0.237,3.186,0.685,4.686c-0.219,0.035-0.438,0.071-0.657,0.105c-2.175,0.344-4.376,0.495-6.577,0.452
	c-1.063,1.928-2.294,3.759-3.68,5.47C320.508,337.721,320.367,337.893,320.228,338.064L320.228,338.064z M304.806,292.895
	c0.015-0.005,0.029-0.009,0.045-0.014c0.067-0.021,0.136-0.041,0.204-0.06c0.049-0.014,0.099-0.027,0.147-0.041
	c0.023-0.006,0.047-0.013,0.071-0.019c1.018-0.268,2.054-0.396,3.082-0.393c0.065,0,0.131,0.001,0.195,0.002
	c0.014,0,0.028,0,0.042,0.001c0.81,0.018,1.622,0.118,2.425,0.303c0.013,0.003,0.026,0.007,0.04,0.01
	c0.076,0.018,0.153,0.037,0.229,0.056c0.045,0.011,0.089,0.023,0.133,0.035c0.045,0.012,0.09,0.024,0.135,0.037
	c0.076,0.021,0.151,0.043,0.226,0.066c0.014,0.004,0.027,0.008,0.041,0.012c0.788,0.24,1.541,0.56,2.251,0.949
	c0.013,0.007,0.025,0.014,0.038,0.021c0.056,0.031,0.112,0.063,0.168,0.095c0.892,0.509,1.723,1.137,2.468,1.876
	c0.023,0.022,0.046,0.045,0.068,0.067c0.032,0.032,0.063,0.064,0.096,0.097c0.051,0.052,0.101,0.105,0.151,0.158
	c0.009,0.011,0.019,0.021,0.028,0.031c0.562,0.603,1.054,1.256,1.473,1.948c0.008,0.012,0.015,0.024,0.022,0.036
	c0.038,0.063,0.075,0.126,0.112,0.19c0.036,0.064,0.072,0.128,0.108,0.192c0.007,0.013,0.014,0.025,0.021,0.038
	c0.39,0.709,0.71,1.462,0.95,2.249c0.005,0.014,0.009,0.028,0.013,0.042c0.021,0.069,0.041,0.138,0.061,0.208
	c0.014,0.047,0.026,0.094,0.039,0.141c0.008,0.027,0.015,0.053,0.021,0.08c0.268,1.017,0.396,2.053,0.392,3.081
	c0,0.064-0.001,0.128-0.002,0.192c0,0.015,0,0.029-0.001,0.043c-0.018,0.809-0.117,1.622-0.303,2.424
	c-0.004,0.014-0.007,0.028-0.01,0.042c-0.019,0.076-0.037,0.152-0.057,0.228c-0.011,0.045-0.023,0.09-0.035,0.136
	c-0.012,0.044-0.023,0.088-0.036,0.132c-0.021,0.076-0.044,0.152-0.066,0.227c-0.004,0.013-0.008,0.026-0.012,0.04
	c-0.24,0.788-0.561,1.542-0.95,2.252c-0.006,0.012-0.013,0.024-0.02,0.036c-0.031,0.057-0.063,0.114-0.096,0.17
	c-0.509,0.891-1.137,1.721-1.875,2.467c-0.022,0.023-0.046,0.046-0.068,0.069c-0.032,0.032-0.064,0.064-0.097,0.095
	c-0.052,0.051-0.104,0.101-0.157,0.151c-0.011,0.009-0.021,0.02-0.032,0.029c-0.603,0.561-1.256,1.053-1.947,1.472
	c-0.013,0.008-0.026,0.016-0.04,0.024c-0.062,0.037-0.124,0.074-0.187,0.11c-0.064,0.037-0.129,0.073-0.194,0.109
	c-0.012,0.007-0.023,0.014-0.035,0.021c-0.709,0.39-1.462,0.709-2.249,0.951c-0.015,0.004-0.028,0.008-0.043,0.013
	c-0.068,0.021-0.138,0.041-0.207,0.061c-0.047,0.013-0.094,0.026-0.141,0.039c-0.026,0.007-0.053,0.014-0.08,0.021
	c-1.017,0.268-2.051,0.396-3.079,0.392c-0.064,0-0.13-0.001-0.195-0.002c-0.014,0-0.027,0-0.041,0
	c-0.81-0.018-1.622-0.118-2.425-0.303c-0.014-0.003-0.027-0.007-0.041-0.01c-0.076-0.018-0.152-0.036-0.229-0.056
	c-0.045-0.011-0.09-0.024-0.134-0.036c-0.045-0.012-0.089-0.023-0.134-0.036c-0.076-0.021-0.151-0.043-0.228-0.066
	c-0.013-0.004-0.025-0.008-0.038-0.012c-0.788-0.24-1.542-0.56-2.252-0.949c-0.013-0.007-0.025-0.014-0.037-0.021
	c-0.057-0.031-0.112-0.063-0.168-0.095c-0.892-0.51-1.724-1.138-2.471-1.877c-0.021-0.021-0.042-0.042-0.063-0.063
	c-0.033-0.034-0.066-0.067-0.1-0.102c-0.051-0.051-0.101-0.104-0.149-0.156c-0.011-0.011-0.021-0.022-0.03-0.033
	c-0.562-0.602-1.054-1.255-1.473-1.947c-0.008-0.012-0.015-0.025-0.022-0.037c-0.037-0.063-0.075-0.126-0.112-0.189
	s-0.072-0.127-0.108-0.191c-0.007-0.013-0.014-0.025-0.021-0.038c-0.389-0.709-0.709-1.461-0.95-2.248
	c-0.004-0.015-0.009-0.03-0.013-0.045c-0.021-0.068-0.041-0.136-0.06-0.205c-0.014-0.049-0.027-0.098-0.041-0.147
	c-0.006-0.023-0.013-0.047-0.019-0.071c-0.268-1.018-0.397-2.054-0.393-3.083c0-0.065,0.001-0.129,0.002-0.194
	c0-0.014,0-0.028,0.001-0.043c0.018-0.81,0.118-1.622,0.304-2.424c0.003-0.013,0.006-0.026,0.009-0.04
	c0.018-0.076,0.037-0.153,0.056-0.23c0.011-0.044,0.023-0.088,0.035-0.133c0.012-0.045,0.024-0.09,0.037-0.135
	c0.021-0.075,0.043-0.15,0.065-0.225c0.004-0.014,0.008-0.027,0.013-0.041c0.24-0.788,0.56-1.541,0.949-2.251
	c0.007-0.013,0.015-0.025,0.021-0.039c0.031-0.056,0.062-0.111,0.094-0.167c0.51-0.892,1.139-1.724,1.878-2.471
	c0.021-0.021,0.042-0.042,0.063-0.063c0.033-0.033,0.067-0.066,0.101-0.1c0.052-0.05,0.104-0.1,0.156-0.148
	c0.011-0.011,0.021-0.021,0.033-0.031c0.603-0.562,1.256-1.053,1.947-1.472c0.012-0.007,0.023-0.014,0.035-0.021
	c0.063-0.038,0.128-0.076,0.191-0.113c0.063-0.037,0.127-0.072,0.19-0.107c0.013-0.007,0.026-0.015,0.039-0.022
	C303.267,293.456,304.019,293.136,304.806,292.895L304.806,292.895z"/>
</svg>
